<svg width="80" height="80" viewBox="0 0 80 80" fill="none" xmlns="http://www.w3.org/2000/svg">
<rect width="80" height="80" rx="12" fill="#EEE170"/>
<path d="M30.2734 51.7368V23.2993H40.0195C43.2357 23.2993 45.6836 23.9438 47.3633 25.2329C49.043 26.522 49.8828 28.4425 49.8828 30.9946C49.8828 32.2967 49.5313 33.4686 48.8281 34.5103C48.125 35.5519 47.0964 36.3592 45.7422 36.9321C47.2787 37.3488 48.4635 38.1366 49.2969 39.2954C50.1432 40.4412 50.5664 41.8215 50.5664 43.436C50.5664 46.1053 49.707 48.1561 47.9883 49.5884C46.2826 51.0207 43.8346 51.7368 40.6445 51.7368H30.2734ZM35.2148 38.9048V47.7915H40.7031C42.2526 47.7915 43.4635 47.4074 44.3359 46.6392C45.2083 45.8709 45.6445 44.8032 45.6445 43.436C45.6445 40.4803 44.1341 38.9699 41.1133 38.9048H35.2148ZM35.2148 35.272H40.0586C41.5951 35.272 42.793 34.9269 43.6523 34.2368C44.5247 33.5337 44.9609 32.5441 44.9609 31.2681C44.9609 29.8618 44.5573 28.8462 43.75 28.2212C42.9557 27.5962 41.7122 27.2837 40.0195 27.2837H35.2148V35.272Z" fill="black"/>
</svg>
