<svg width="77" height="77" viewBox="0 0 77 77" fill="none" xmlns="http://www.w3.org/2000/svg">
<rect x="1" y="1" width="75" height="75" rx="12" fill="#EEE170"/>
<rect x="0.5" y="0.5" width="76" height="76" rx="12.5" stroke="black" stroke-opacity="0.5"/>
<path d="M28.7735 51.8158V23.3783H38.5196C41.7357 23.3783 44.1836 24.0228 45.8633 25.3119C47.543 26.6009 48.3828 28.5215 48.3828 31.0736C48.3828 32.3757 48.0313 33.5475 47.3282 34.5892C46.625 35.6309 45.5964 36.4382 44.2422 37.0111C45.7787 37.4277 46.9636 38.2155 47.7969 39.3744C48.6433 40.5202 49.0664 41.9004 49.0664 43.515C49.0664 46.1843 48.2071 48.235 46.4883 49.6673C44.7826 51.0996 42.3347 51.8158 39.1446 51.8158H28.7735ZM33.7149 38.9837V47.8705H39.2032C40.7526 47.8705 41.9636 47.4863 42.836 46.7181C43.7084 45.9499 44.1446 44.8822 44.1446 43.515C44.1446 40.5593 42.6341 39.0488 39.6133 38.9837H33.7149ZM33.7149 35.3509H38.5586C40.0951 35.3509 41.293 35.0059 42.1524 34.3158C43.0248 33.6126 43.461 32.6231 43.461 31.347C43.461 29.9408 43.0573 28.9251 42.25 28.3001C41.4558 27.6751 40.2123 27.3626 38.5196 27.3626H33.7149V35.3509Z" fill="black"/>
</svg>
