<svg width="77" height="77" viewBox="0 0 77 77" fill="none" xmlns="http://www.w3.org/2000/svg">
<rect x="1" y="1" width="75" height="75" rx="12" fill="#70EEAA"/>
<rect x="0.5" y="0.5" width="76" height="76" rx="12.5" stroke="black" stroke-opacity="0.5"/>
<path d="M50.5169 42.558C50.2304 45.5918 49.1106 47.9616 47.1575 49.6673C45.2044 51.36 42.6067 52.2064 39.3645 52.2064C37.0989 52.2064 35.1002 51.6725 33.3684 50.6048C31.6497 49.5241 30.3216 47.9942 29.3841 46.015C28.4466 44.0358 27.9583 41.7376 27.9192 39.1205V36.4642C27.9192 33.7819 28.3945 31.4186 29.345 29.3744C30.2955 27.3301 31.6562 25.7546 33.427 24.6478C35.2109 23.541 37.2682 22.9876 39.5989 22.9876C42.7369 22.9876 45.263 23.8405 47.177 25.5462C49.0911 27.252 50.2044 29.6608 50.5169 32.7728H45.595C45.3606 30.7285 44.7617 29.2572 43.7981 28.3587C42.8476 27.4473 41.4479 26.9915 39.5989 26.9915C37.4505 26.9915 35.7968 27.7793 34.638 29.3548C33.4921 30.9173 32.9062 33.2155 32.8802 36.2494V38.7689C32.8802 41.8418 33.427 44.1856 34.5208 45.8001C35.6276 47.4147 37.2421 48.222 39.3645 48.222C41.3046 48.222 42.763 47.7858 43.7395 46.9134C44.7161 46.041 45.3346 44.5892 45.595 42.558H50.5169Z" fill="black"/>
</svg>
