<svg width="80" height="80" viewBox="0 0 80 80" fill="none" xmlns="http://www.w3.org/2000/svg">
<rect width="80" height="80" rx="12" fill="#70EEAA"/>
<path d="M52.0498 42.479C51.7633 45.5129 50.6435 47.8826 48.6904 49.5884C46.7373 51.2811 44.1396 52.1274 40.8974 52.1274C38.6318 52.1274 36.6331 51.5936 34.9013 50.5259C33.1826 49.4451 31.8544 47.9152 30.9169 45.936C29.9794 43.9569 29.4912 41.6587 29.4521 39.0415V36.3853C29.4521 33.703 29.9274 31.3397 30.8779 29.2954C31.8284 27.2511 33.1891 25.6756 34.9599 24.5688C36.7438 23.4621 38.8011 22.9087 41.1318 22.9087C44.2698 22.9087 46.7959 23.7616 48.7099 25.4673C50.624 27.173 51.7373 29.5819 52.0498 32.6938H47.1279C46.8935 30.6496 46.2946 29.1782 45.331 28.2798C44.3805 27.3683 42.9807 26.9126 41.1318 26.9126C38.9834 26.9126 37.3297 27.7004 36.1709 29.2759C35.025 30.8384 34.4391 33.1366 34.413 36.1704V38.6899C34.413 41.7629 34.9599 44.1066 36.0537 45.7212C37.1604 47.3358 38.775 48.1431 40.8974 48.1431C42.8375 48.1431 44.2959 47.7069 45.2724 46.8345C46.249 45.9621 46.8675 44.5103 47.1279 42.479H52.0498Z" fill="black"/>
</svg>
