<svg width="80" height="80" viewBox="0 0 80 80" fill="none" xmlns="http://www.w3.org/2000/svg">
<rect width="80" height="80" rx="12" fill="#70D0EE"/>
<path d="M30.3505 51.7368V23.2993H38.749C41.262 23.2993 43.4886 23.8592 45.4287 24.979C47.3818 26.0988 48.8922 27.6873 49.9599 29.7446C51.0276 31.8019 51.5615 34.1587 51.5615 36.8149V38.2407C51.5615 40.936 51.0211 43.3058 49.9404 45.3501C48.8727 47.3944 47.3427 48.9699 45.3505 50.0767C43.3714 51.1834 41.0992 51.7368 38.5341 51.7368H30.3505ZM35.2919 27.2837V47.7915H38.5146C41.1057 47.7915 43.0914 46.9842 44.4716 45.3696C45.8649 43.742 46.5745 41.4113 46.6005 38.3774V36.7954C46.6005 33.7095 45.93 31.3527 44.5888 29.7251C43.2477 28.0975 41.3011 27.2837 38.749 27.2837H35.2919Z" fill="black"/>
</svg>
