<svg width="77" height="77" viewBox="0 0 77 77" fill="none" xmlns="http://www.w3.org/2000/svg">
<rect x="1" y="1" width="75" height="75" rx="12" fill="#70D0EE"/>
<rect x="0.5" y="0.5" width="76" height="76" rx="12.5" stroke="black" stroke-opacity="0.5"/>
<path d="M28.8176 51.8158V23.3783H37.216C39.7291 23.3783 41.9556 23.9382 43.8957 25.058C45.8489 26.1777 47.3593 27.7663 48.427 29.8236C49.4947 31.8809 50.0285 34.2376 50.0285 36.8939V38.3197C50.0285 41.015 49.4882 43.3848 48.4075 45.429C47.3397 47.4733 45.8098 49.0488 43.8176 50.1556C41.8384 51.2624 39.5663 51.8158 37.0012 51.8158H28.8176ZM33.759 27.3626V47.8705H36.9817C39.5728 47.8705 41.5585 47.0632 42.9387 45.4486C44.3319 43.821 45.0416 41.4902 45.0676 38.4564V36.8744C45.0676 33.7884 44.397 31.4317 43.0559 29.804C41.7147 28.1764 39.7681 27.3626 37.216 27.3626H33.759Z" fill="black"/>
</svg>
