<svg width="77" height="77" viewBox="0 0 77 77" fill="none" xmlns="http://www.w3.org/2000/svg">
<rect x="1" y="1" width="75" height="75" rx="12" fill="#EEE170"/>
<rect x="0.5" y="0.5" width="76" height="76" rx="12.5" stroke="black" stroke-opacity="0.5"/>
<path d="M49.5742 48.1244C48.5456 49.4655 47.1198 50.4812 45.2969 51.1713C43.474 51.8614 41.4036 52.2064 39.0859 52.2064C36.7031 52.2064 34.5937 51.6661 32.7578 50.5853C30.9219 49.5046 29.5026 47.9616 28.5 45.9564C27.5104 43.9382 26.9961 41.5879 26.957 38.9056V36.6791C26.957 32.3822 27.9857 29.0293 30.043 26.6205C32.1003 24.1986 34.9713 22.9877 38.6562 22.9877C41.8203 22.9877 44.3333 23.7689 46.1953 25.3314C48.0573 26.8939 49.1771 29.1465 49.5547 32.0892H44.7109C44.1641 28.6648 42.1784 26.9525 38.7539 26.9525C36.5404 26.9525 34.8542 27.7533 33.6953 29.3549C32.5495 30.9434 31.957 33.2806 31.918 36.3666V38.5541C31.918 41.627 32.5625 44.0163 33.8516 45.722C35.1536 47.4148 36.957 48.2611 39.2617 48.2611C41.7878 48.2611 43.5846 47.6882 44.6523 46.5424V40.976H38.793V37.226H49.5742V48.1244Z" fill="black"/>
</svg>
