<svg width="80" height="80" viewBox="0 0 80 80" fill="none" xmlns="http://www.w3.org/2000/svg">
<rect width="80" height="80" rx="12" fill="#EEE170"/>
<path d="M51.0742 48.0454C50.0455 49.3866 48.6198 50.4022 46.7968 51.0923C44.9739 51.7824 42.9036 52.1275 40.5859 52.1275C38.2031 52.1275 36.0937 51.5871 34.2578 50.5064C32.4218 49.4256 31.0026 47.8827 30 45.8775C29.0104 43.8592 28.4961 41.509 28.457 38.8267V36.6001C28.457 32.3033 29.4856 28.9504 31.5429 26.5415C33.6002 24.1197 36.4713 22.9087 40.1562 22.9087C43.3203 22.9087 45.8333 23.69 47.6953 25.2525C49.5573 26.815 50.677 29.0676 51.0547 32.0103H46.2109C45.664 28.5858 43.6784 26.8736 40.2539 26.8736C38.0403 26.8736 36.3541 27.6743 35.1953 29.2759C34.0494 30.8645 33.457 33.2017 33.4179 36.2876V38.4751C33.4179 41.548 34.0625 43.9374 35.3515 45.6431C36.6536 47.3358 38.457 48.1822 40.7617 48.1822C43.2877 48.1822 45.0846 47.6092 46.1523 46.4634V40.897H40.2929V37.147H51.0742V48.0454Z" fill="black"/>
</svg>
