<svg width="77" height="77" viewBox="0 0 77 77" fill="none" xmlns="http://www.w3.org/2000/svg">
<rect x="1" y="1" width="75" height="75" rx="12" fill="#EEE170"/>
<rect x="0.5" y="0.5" width="76" height="76" rx="12.5" stroke="black" stroke-opacity="0.5"/>
<path d="M42.4114 23.3783H47.3332V43.3197C47.3332 46.0411 46.4804 48.2025 44.7746 49.8041C43.0819 51.4056 40.8424 52.2064 38.0559 52.2064C35.0871 52.2064 32.7955 51.4577 31.1809 49.9603C29.5663 48.4629 28.759 46.3796 28.759 43.7103H33.6809C33.6809 45.2207 34.052 46.3601 34.7942 47.1283C35.5494 47.8835 36.6366 48.2611 38.0559 48.2611C39.384 48.2611 40.4387 47.8249 41.22 46.9525C42.0142 46.0671 42.4114 44.8497 42.4114 43.3002V23.3783Z" fill="black"/>
</svg>
