<svg width="80" height="80" viewBox="0 0 80 80" fill="none" xmlns="http://www.w3.org/2000/svg">
<rect width="80" height="80" rx="12" fill="#70D0EE"/>
<path d="M51.7773 38.2603C51.7773 41.0467 51.2955 43.4947 50.332 45.604C49.3685 47.7004 47.9882 49.315 46.1914 50.4478C44.4075 51.5676 42.3502 52.1275 40.0195 52.1275C37.7148 52.1275 35.6575 51.5676 33.8476 50.4478C32.0507 49.315 30.6575 47.7069 29.6679 45.6236C28.6914 43.5402 28.1966 41.1379 28.1836 38.4165V36.815C28.1836 34.0415 28.6718 31.5936 29.6484 29.4712C30.638 27.3488 32.0247 25.7277 33.8086 24.6079C35.6054 23.4751 37.6627 22.9087 39.9804 22.9087C42.2981 22.9087 44.3489 23.4686 46.1328 24.5884C47.9297 25.6952 49.3164 27.2967 50.2929 29.3931C51.2695 31.4764 51.7643 33.9048 51.7773 36.6782V38.2603ZM46.8359 36.7759C46.8359 33.6249 46.2369 31.2095 45.039 29.5298C43.8541 27.8501 42.1679 27.0103 39.9804 27.0103C37.845 27.0103 36.1718 27.8501 34.9609 29.5298C33.763 31.1965 33.151 33.5598 33.125 36.6197V38.2603C33.125 41.3853 33.7304 43.8006 34.9414 45.5064C36.1653 47.2121 37.858 48.065 40.0195 48.065C42.207 48.065 43.8867 47.2316 45.0586 45.565C46.2435 43.8983 46.8359 41.4634 46.8359 38.2603V36.7759Z" fill="black"/>
</svg>
