<svg width="77" height="77" viewBox="0 0 77 77" fill="none" xmlns="http://www.w3.org/2000/svg">
<rect x="1" y="1" width="75" height="75" rx="12" fill="#70D0EE"/>
<rect x="0.5" y="0.5" width="76" height="76" rx="12.5" stroke="black" stroke-opacity="0.5"/>
<path d="M50.2773 38.3392C50.2773 41.1257 49.7956 43.5736 48.832 45.683C47.8685 47.7793 46.4883 49.3939 44.6914 50.5267C42.9075 51.6465 40.8503 52.2064 38.5195 52.2064C36.2148 52.2064 34.1575 51.6465 32.3476 50.5267C30.5508 49.3939 29.1575 47.7858 28.168 45.7025C27.1914 43.6192 26.6966 41.2168 26.6836 38.4955V36.8939C26.6836 34.1205 27.1719 31.6726 28.1484 29.5502C29.138 27.4278 30.5247 25.8067 32.3086 24.6869C34.1055 23.5541 36.1628 22.9877 38.4805 22.9877C40.7982 22.9877 42.849 23.5476 44.6328 24.6674C46.4297 25.7741 47.8164 27.3757 48.793 29.472C49.7695 31.5554 50.2643 33.9838 50.2773 36.7572V38.3392ZM45.3359 36.8549C45.3359 33.7038 44.737 31.2884 43.5391 29.6088C42.3542 27.9291 40.668 27.0892 38.4805 27.0892C36.345 27.0892 34.6719 27.9291 33.4609 29.6088C32.263 31.2754 31.651 33.6387 31.625 36.6986V38.3392C31.625 41.4642 32.2305 43.8796 33.4414 45.5853C34.6654 47.291 36.3581 48.1439 38.5195 48.1439C40.707 48.1439 42.3867 47.3106 43.5586 45.6439C44.7435 43.9772 45.3359 41.5424 45.3359 38.3392V36.8549Z" fill="black"/>
</svg>
