<svg width="80" height="80" viewBox="0 0 80 80" fill="none" xmlns="http://www.w3.org/2000/svg">
<rect width="80" height="80" rx="12" fill="#70EEAA"/>
<path d="M35.0391 41.1704V51.7368H30.0977V23.2993H40.9766C44.1537 23.2993 46.6732 24.1262 48.5352 25.7798C50.4102 27.4335 51.3477 29.621 51.3477 32.3423C51.3477 35.1288 50.4297 37.2967 48.5938 38.8462C46.7708 40.3957 44.2122 41.1704 40.918 41.1704H35.0391ZM35.0391 37.2056H40.9766C42.7344 37.2056 44.0755 36.7954 45 35.9751C45.9245 35.1418 46.3867 33.9439 46.3867 32.3814C46.3867 30.8449 45.918 29.621 44.9805 28.7095C44.043 27.785 42.7539 27.3098 41.1133 27.2837H35.0391V37.2056Z" fill="black"/>
</svg>
