<svg width="77" height="77" viewBox="0 0 77 77" fill="none" xmlns="http://www.w3.org/2000/svg">
<rect x="1" y="1" width="75" height="75" rx="12" fill="#70EEAA"/>
<rect x="0.5" y="0.5" width="76" height="76" rx="12.5" stroke="black" stroke-opacity="0.5"/>
<path d="M33.539 41.2494V51.8158H28.5976V23.3783H39.4765C42.6536 23.3783 45.1731 24.2051 47.0351 25.8588C48.9101 27.5124 49.8476 29.6999 49.8476 32.4213C49.8476 35.2077 48.9297 37.3757 47.0937 38.9252C45.2708 40.4746 42.7122 41.2494 39.4179 41.2494H33.539ZM33.539 37.2845H39.4765C41.2343 37.2845 42.5755 36.8744 43.5 36.0541C44.4244 35.2207 44.8867 34.0228 44.8867 32.4603C44.8867 30.9239 44.4179 29.6999 43.4804 28.7884C42.5429 27.864 41.2539 27.3887 39.6132 27.3627H33.539V37.2845Z" fill="black"/>
</svg>
