<svg width="77" height="77" viewBox="0 0 77 77" fill="none" xmlns="http://www.w3.org/2000/svg">
<rect x="1" y="1" width="75" height="75" rx="12" fill="#EE7070"/>
<rect x="0.5" y="0.5" width="76" height="76" rx="12.5" stroke="black" stroke-opacity="0.5"/>
<path d="M50.1797 39.3261C50.1797 42.0214 49.75 44.3586 48.8906 46.3378C48.0443 48.3039 46.8529 49.8664 45.3164 51.0253L50.1992 54.8339L46.9961 57.7245L40.9414 52.9394C40.1471 53.1086 39.2943 53.1933 38.3828 53.1933C36.0911 53.1933 34.0404 52.6334 32.2305 51.5136C30.4336 50.3808 29.0404 48.7727 28.0508 46.6894C27.0742 44.606 26.5794 42.2037 26.5664 39.4823V37.8808C26.5664 35.1073 27.0547 32.6594 28.0312 30.537C29.0208 28.4146 30.4075 26.7935 32.1914 25.6737C33.9883 24.5409 36.0391 23.9745 38.3437 23.9745C40.6875 23.9745 42.7513 24.5344 44.5351 25.6542C46.332 26.761 47.7187 28.3625 48.6953 30.4589C49.6719 32.5422 50.1667 34.9706 50.1797 37.744V39.3261ZM45.2187 37.8417C45.2187 34.6386 44.6198 32.2102 43.4219 30.5565C42.224 28.9029 40.5312 28.0761 38.3437 28.0761C36.2213 28.0761 34.5547 28.9159 33.3437 30.5956C32.1458 32.2623 31.5338 34.619 31.5078 37.6659V39.3261C31.5078 42.399 32.1068 44.8013 33.3047 46.5331C34.5156 48.2649 36.2083 49.1308 38.3828 49.1308C40.5833 49.1308 42.2695 48.2974 43.4414 46.6308C44.6263 44.9641 45.2187 42.5292 45.2187 39.3261V37.8417Z" fill="black"/>
</svg>
