<svg width="80" height="80" viewBox="0 0 80 80" fill="none" xmlns="http://www.w3.org/2000/svg">
<rect width="80" height="80" rx="12" fill="#EE7070"/>
<path d="M51.6797 39.3129C51.6797 42.0082 51.25 44.3455 50.3906 46.3246C49.5442 48.2908 48.3528 49.8533 46.8164 51.0121L51.6992 54.8207L48.4961 57.7113L42.4414 52.9262C41.6471 53.0955 40.7942 53.1801 39.8828 53.1801C37.5911 53.1801 35.5403 52.6202 33.7304 51.5004C31.9336 50.3676 30.5403 48.7595 29.5507 46.6762C28.5742 44.5929 28.0794 42.1905 28.0664 39.4692V37.8676C28.0664 35.0942 28.5547 32.6462 29.5312 30.5238C30.5208 28.4015 31.9075 26.7804 33.6914 25.6606C35.4882 24.5278 37.539 23.9613 39.8437 23.9613C42.1875 23.9613 44.2513 24.5212 46.0351 25.641C47.832 26.7478 49.2187 28.3494 50.1953 30.4457C51.1718 32.5291 51.6666 34.9574 51.6797 37.7309V39.3129ZM46.7187 37.8285C46.7187 34.6254 46.1198 32.197 44.9218 30.5434C43.7239 28.8897 42.0312 28.0629 39.8437 28.0629C37.7213 28.0629 36.0547 28.9028 34.8437 30.5824C33.6458 32.2491 33.0338 34.6059 33.0078 37.6528V39.3129C33.0078 42.3858 33.6067 44.7882 34.8047 46.5199C36.0156 48.2517 37.7083 49.1176 39.8828 49.1176C42.0833 49.1176 43.7695 48.2843 44.9414 46.6176C46.1263 44.9509 46.7187 42.516 46.7187 39.3129V37.8285Z" fill="black"/>
</svg>
