<svg width="80" height="80" viewBox="0 0 80 80" fill="none" xmlns="http://www.w3.org/2000/svg">
<rect width="80" height="80" rx="12" fill="#70D0EE"/>
<path d="M41.3857 41.8324H35.8779V52.7895H30.9365V24.352H40.9365C44.2177 24.352 46.7503 25.0877 48.5341 26.559C50.318 28.0304 51.2099 30.1593 51.2099 32.9457C51.2099 34.8468 50.7477 36.4418 49.8232 37.7309C48.9117 39.0069 47.6357 39.99 45.9951 40.6801L52.3818 52.5356V52.7895H47.0888L41.3857 41.8324ZM35.8779 37.8676H40.956C42.6227 37.8676 43.9247 37.4509 44.8622 36.6176C45.7997 35.7712 46.2685 34.6189 46.2685 33.1606C46.2685 31.6371 45.8323 30.4587 44.9599 29.6254C44.1005 28.7921 42.8115 28.3624 41.0927 28.3363H35.8779V37.8676Z" fill="black"/>
</svg>
