<svg width="77" height="77" viewBox="0 0 77 77" fill="none" xmlns="http://www.w3.org/2000/svg">
<rect x="1" y="1" width="75" height="75" rx="12" fill="#70D0EE"/>
<rect x="0.5" y="0.5" width="76" height="76" rx="12.5" stroke="black" stroke-opacity="0.5"/>
<path d="M39.8528 41.8456H34.345V52.8026H29.4036V24.3651H39.4036C42.6848 24.3651 45.2174 25.1008 47.0012 26.5722C48.7851 28.0435 49.677 30.1724 49.677 32.9589C49.677 34.8599 49.2148 36.455 48.2903 37.744C47.3788 39.0201 46.1028 40.0032 44.4622 40.6933L50.8489 52.5487V52.8026H45.5559L39.8528 41.8456ZM34.345 37.8808H39.4231C41.0898 37.8808 42.3919 37.4641 43.3294 36.6308C44.2669 35.7844 44.7356 34.6321 44.7356 33.1737C44.7356 31.6503 44.2994 30.4719 43.427 29.6386C42.5676 28.8052 41.2786 28.3756 39.5598 28.3495H34.345V37.8808Z" fill="black"/>
</svg>
