<svg width="80" height="80" viewBox="0 0 80 80" fill="none" xmlns="http://www.w3.org/2000/svg">
<rect width="80" height="80" rx="12" fill="#70EEAA"/>
<path d="M46.2099 45.4653C46.2099 44.2153 45.7672 43.2517 44.8818 42.5746C44.0094 41.8975 42.4273 41.214 40.1357 40.5238C37.844 39.8337 36.0211 39.0655 34.6669 38.2192C32.0758 36.5916 30.7802 34.4692 30.7802 31.852C30.7802 29.5603 31.7112 27.6723 33.5732 26.1879C35.4482 24.7035 37.8766 23.9613 40.8583 23.9613C42.8375 23.9613 44.6018 24.3259 46.1513 25.0551C47.7008 25.7843 48.9182 26.8259 49.8036 28.1801C50.6891 29.5212 51.1318 31.0121 51.1318 32.6528H46.2099C46.2099 31.1684 45.7411 30.0095 44.8036 29.1762C43.8792 28.3298 42.551 27.9067 40.8193 27.9067C39.2047 27.9067 37.9482 28.2517 37.0497 28.9418C36.1643 29.6319 35.7216 30.5955 35.7216 31.8324C35.7216 32.8741 36.2034 33.7465 37.1669 34.4496C38.1305 35.1397 39.719 35.8168 41.9326 36.4809C44.1461 37.1319 45.9234 37.8806 47.2646 38.727C48.6057 39.5603 49.5888 40.5238 50.2138 41.6176C50.8388 42.6983 51.1513 43.9679 51.1513 45.4262C51.1513 47.796 50.2398 49.684 48.4169 51.0903C46.607 52.4835 44.1461 53.1801 41.0341 53.1801C38.9768 53.1801 37.0823 52.8025 35.3505 52.0473C33.6318 51.2791 32.2906 50.2244 31.3271 48.8832C30.3766 47.5421 29.9013 45.9796 29.9013 44.1957H34.8427C34.8427 45.8103 35.3766 47.0603 36.4443 47.9457C37.512 48.8311 39.0419 49.2738 41.0341 49.2738C42.7529 49.2738 44.0419 48.9288 44.9013 48.2387C45.7737 47.5356 46.2099 46.6111 46.2099 45.4653Z" fill="black"/>
</svg>
