<svg width="77" height="77" viewBox="0 0 77 77" fill="none" xmlns="http://www.w3.org/2000/svg">
<rect x="1" y="1" width="75" height="75" rx="12" fill="#70EEAA"/>
<rect x="0.5" y="0.5" width="76" height="76" rx="12.5" stroke="black" stroke-opacity="0.5"/>
<path d="M44.677 45.4784C44.677 44.2284 44.2343 43.2649 43.3489 42.5878C42.4765 41.9107 40.8945 41.2271 38.6028 40.537C36.3111 39.8469 34.4882 39.0787 33.134 38.2323C30.5429 36.6047 29.2473 34.4823 29.2473 31.8651C29.2473 29.5735 30.1783 27.6854 32.0403 26.2011C33.9153 24.7167 36.3437 23.9745 39.3255 23.9745C41.3046 23.9745 43.0689 24.3391 44.6184 25.0683C46.1679 25.7974 47.3854 26.8391 48.2708 28.1933C49.1562 29.5344 49.5989 31.0253 49.5989 32.6659H44.677C44.677 31.1815 44.2083 30.0227 43.2708 29.1894C42.3463 28.343 41.0182 27.9198 39.2864 27.9198C37.6718 27.9198 36.4153 28.2649 35.5169 28.955C34.6314 29.6451 34.1887 30.6086 34.1887 31.8456C34.1887 32.8873 34.6705 33.7597 35.634 34.4628C36.5976 35.1529 38.1861 35.83 40.3997 36.494C42.6132 37.1451 44.3906 37.8938 45.7317 38.7401C47.0729 39.5735 48.0559 40.537 48.6809 41.6308C49.3059 42.7115 49.6184 43.981 49.6184 45.4394C49.6184 47.8091 48.707 49.6972 46.884 51.1034C45.0742 52.4966 42.6132 53.1933 39.5012 53.1933C37.4439 53.1933 35.5494 52.8157 33.8176 52.0604C32.0989 51.2922 30.7577 50.2375 29.7942 48.8964C28.8437 47.5552 28.3684 45.9927 28.3684 44.2089H33.3098C33.3098 45.8235 33.8437 47.0735 34.9114 47.9589C35.9791 48.8443 37.509 49.287 39.5012 49.287C41.22 49.287 42.509 48.942 43.3684 48.2519C44.2408 47.5487 44.677 46.6242 44.677 45.4784Z" fill="black"/>
</svg>
