<svg width="77" height="77" viewBox="0 0 77 77" fill="none" xmlns="http://www.w3.org/2000/svg">
<rect x="1" y="1" width="75" height="75" rx="12" fill="#70D0EE"/>
<rect x="0.5" y="0.5" width="76" height="76" rx="12.5" stroke="black" stroke-opacity="0.5"/>
<path d="M49.638 24.3651V43.369C49.638 46.3899 48.6679 48.7857 46.7278 50.5565C44.8007 52.3144 42.2291 53.1933 39.013 53.1933C35.7578 53.1933 33.1731 52.3274 31.2591 50.5956C29.345 48.8508 28.388 46.4355 28.388 43.3495V24.3651H33.3099V43.3886C33.3099 45.2896 33.7916 46.7414 34.7552 47.744C35.7187 48.7467 37.138 49.248 39.013 49.248C42.8151 49.248 44.7161 47.2427 44.7161 43.2323V24.3651H49.638Z" fill="black"/>
</svg>
