<svg width="60" height="60" viewBox="0 0 60 60" fill="none" xmlns="http://www.w3.org/2000/svg">
<path d="M25.1524 30.9318H3.74985C1.67807 30.9318 0 32.6118 0 34.6817V56.0841C0 58.1559 1.67807 59.834 3.74985 59.834H25.1523C27.224 59.834 28.9021 58.1559 28.9021 56.0841V34.6818C28.9022 32.6118 27.2242 30.9318 25.1524 30.9318Z" fill="#FF9F5F"/>
<path d="M56.2483 30.9318H34.8458C32.7758 30.9318 31.0959 32.6118 31.0959 34.6817V56.0841C31.0959 58.1559 32.7759 59.834 34.8458 59.834H56.2482C58.32 59.834 59.9981 58.1559 59.9981 56.0841V34.6818C59.9982 32.6118 58.3201 30.9318 56.2483 30.9318Z" fill="#ED6262"/>
<path d="M40.7013 0.165924H19.2969C17.2252 0.165924 15.5471 1.84592 15.5471 3.91577V25.3182C15.5471 27.39 17.2252 29.068 19.2969 29.068H40.6994C42.7711 29.068 44.4492 27.39 44.4492 25.3182V3.91577C44.4511 1.84399 42.7713 0.165924 40.7013 0.165924Z" fill="#3AA2EB"/>
<path d="M17.7164 14.1005C18.9127 14.1005 19.8707 13.1275 19.8707 11.9312V8.26949C19.8707 7.27009 20.692 6.44894 21.6913 6.462C23.0544 6.462 23.6655 7.24012 23.6655 8.17197V12.6325C23.6655 13.8138 24.5412 14.8562 25.7223 14.9256C26.9598 14.9799 28.0022 13.9937 28.0022 12.7563V9.82937C28.0022 8.82816 28.8085 8.00882 29.8227 8.00882C31.3339 8.18127 31.8945 8.94067 31.8945 9.92689V12.5086C31.8945 13.6899 32.7702 14.7323 33.9382 14.8017C35.1888 14.8579 36.218 13.8698 36.218 12.6324V8.82816C36.218 7.78574 37.1087 7.00761 38.1511 7.02067C38.1511 7.02067 38.1643 7.02067 38.1793 7.02067H38.1924C39.248 7.00568 40.1255 7.78562 40.1255 8.82816V12.2218C40.1255 13.3899 41.0011 14.4323 42.1691 14.5016C43.4197 14.5578 44.449 13.5698 44.449 12.3323L44.4509 3.90635C44.4452 1.84012 42.7691 0.165802 40.7011 0.165802H19.2969C17.2252 0.165802 15.5471 1.84387 15.5471 3.91565V11.9347C15.5489 13.1274 16.5221 14.1005 17.7164 14.1005Z" fill="#2C99DD"/>
<path d="M33.2653 44.8683C34.4615 44.8683 35.4196 43.8952 35.4196 42.7008V39.0371C35.4196 38.0359 36.2408 37.2166 37.2401 37.2296C38.6033 37.2296 39.2144 38.0077 39.2144 38.9396V43.4001C39.2144 44.5814 40.09 45.6238 41.2712 45.6932C42.5086 45.7475 43.5511 44.7613 43.5511 43.5239V40.5952C43.5511 39.594 44.3573 38.7746 45.3716 38.7746C46.8434 38.9415 47.4434 39.6765 47.4434 40.6927V43.2744C47.4434 44.4557 48.319 45.4981 49.487 45.5675C50.7376 45.6237 51.7669 44.6356 51.7669 43.4V39.5958C51.7669 38.5534 52.6575 37.7752 53.6999 37.7883C53.6999 37.7883 53.7131 37.7883 53.7281 37.7883H53.7413C54.7969 37.7733 55.6743 38.5532 55.6743 39.5958V42.9894C55.6743 44.1575 56.55 45.1999 57.7179 45.2692C58.9686 45.3236 59.9978 44.3374 59.9978 43.0999L59.9998 34.674C59.9941 32.6077 58.3179 30.9334 56.2499 30.9334H34.8458C32.7758 30.9334 31.0959 32.6134 31.0959 34.6833V42.7024C31.0959 43.8952 32.069 44.8683 33.2653 44.8683Z" fill="#E25D5D"/>
<path d="M2.16931 44.8683C3.36556 44.8683 4.32363 43.8952 4.32363 42.7008V39.0371C4.32363 38.0359 5.14489 37.2166 6.14417 37.2296C7.50731 37.2296 8.11843 38.0077 8.11843 38.9396V43.4001C8.11843 44.5814 8.99408 45.6238 10.1752 45.6932C11.4127 45.7475 12.4551 44.7613 12.4551 43.5239V40.5952C12.4551 39.594 13.2614 38.7746 14.2756 38.7746C15.7868 38.9453 16.3474 39.7065 16.3474 40.6927V43.2744C16.3474 44.4557 17.2231 45.4981 18.3912 45.5675C19.6418 45.6237 20.6711 44.6356 20.6711 43.4V39.5958C20.6711 38.5534 21.5617 37.7752 22.6041 37.7883C22.6041 37.7883 22.6173 37.7883 22.6323 37.7883H22.6454C23.701 37.7733 24.5785 38.5532 24.5785 39.5958V42.9894C24.5785 44.1575 25.4541 45.1999 26.6222 45.2692C27.8729 45.3236 28.9021 44.3374 28.9021 43.0999L28.904 34.674C28.8984 32.6077 27.2222 30.9334 25.1542 30.9334H3.74985C1.67807 30.9334 0 32.6134 0 34.6833V42.7024C0 43.8952 0.973051 44.8683 2.16931 44.8683Z" fill="#F49758"/>
<path d="M31.3303 7.80447H28.5216C28.4241 7.80447 28.3379 7.8626 28.3023 7.95444L23.18 21.109C23.1518 21.1803 23.1612 21.2609 23.2062 21.3246C23.2493 21.3884 23.3224 21.4277 23.3993 21.4277H26.2155C26.3148 21.4277 26.403 21.3658 26.4368 21.274L27.4642 18.439H32.3971L33.4864 21.2777C33.5221 21.3677 33.6084 21.4277 33.7058 21.4277H36.5951C36.6739 21.4277 36.745 21.3883 36.7901 21.3246C36.8333 21.2608 36.8426 21.1784 36.8145 21.1053L31.5478 7.9507C31.5122 7.86441 31.4259 7.80447 31.3303 7.80447ZM31.3716 15.7561H28.4542L29.8979 11.7888L31.3716 15.7561Z" fill="white"/>
<path d="M18.037 44.9246C18.427 44.6677 18.7551 44.3415 19.012 43.9421C19.3663 43.3928 19.5482 42.7797 19.5482 42.1178C19.5482 41.5103 19.402 40.9535 19.1131 40.4604C18.8262 39.9749 18.4644 39.5792 18.0331 39.2868C17.602 38.9943 17.1088 38.7993 16.5669 38.7074C16.0457 38.6174 15.2488 38.5724 14.2007 38.5724H8.94346C8.81403 38.5724 8.70914 38.6775 8.70914 38.8068V51.9613C8.70914 52.0908 8.81415 52.1957 8.94346 52.1957H13.4227C15.1458 52.1825 16.2013 52.1544 16.6496 52.1038C17.3958 52.0213 18.0295 51.7982 18.5395 51.4401C19.0514 51.0783 19.4601 50.5926 19.7545 49.9946C20.0469 49.4002 20.1951 48.7796 20.1951 48.1478C20.1951 47.3378 19.9607 46.6234 19.4995 46.0216C19.1357 45.5471 18.6463 45.1796 18.037 44.9246ZM16.1751 43.3553C15.9501 43.5803 15.6445 43.7115 15.2413 43.7622C14.9995 43.7903 14.3601 43.8034 13.3402 43.8034H11.8328V41.2309H13.1227C14.3621 41.2309 15.1158 41.2459 15.3633 41.2741C15.7458 41.319 16.0307 41.4503 16.2163 41.6585C16.4039 41.8703 16.4957 42.144 16.4957 42.4928C16.4957 42.8566 16.3907 43.1396 16.1751 43.3553ZM11.8328 46.462H13.7433C15.2096 46.462 15.7908 46.5576 16.0214 46.6364C16.3383 46.7469 16.5726 46.9138 16.7357 47.1501C16.9007 47.3863 16.9795 47.6713 16.9795 48.022C16.9795 48.4269 16.8745 48.7513 16.6664 48.9838C16.4508 49.2238 16.1789 49.37 15.8283 49.4338C15.594 49.4825 14.9977 49.5089 14.0565 49.5089H11.8328V46.462Z" fill="white"/>
<path d="M51.3452 47.7164L48.771 46.9008C48.7091 46.8801 48.6416 46.8876 48.5834 46.9215C48.5272 46.9552 48.4859 47.0077 48.4709 47.0714C48.2609 47.9808 47.9178 48.652 47.4491 49.0645C46.9803 49.477 46.4366 49.6776 45.7822 49.6776C44.8879 49.6776 44.1848 49.3588 43.6279 48.7008C43.0691 48.0427 42.7861 46.899 42.7861 45.3015C42.7861 43.7978 43.073 42.7066 43.6392 42.056C44.2054 41.4035 44.9235 41.0867 45.8347 41.0867C46.4928 41.0867 47.0327 41.2628 47.4865 41.6266C47.9365 41.9866 48.2347 42.4853 48.379 43.1115C48.394 43.1715 48.4314 43.2241 48.484 43.2578C48.5364 43.2877 48.6002 43.3009 48.6621 43.2859L51.2907 42.6578C51.3526 42.6428 51.407 42.6053 51.4389 42.549C51.4708 42.4946 51.4783 42.429 51.4614 42.3653C51.152 41.276 50.6777 40.4248 50.0515 39.836C49.0053 38.8479 47.6327 38.3454 45.9698 38.3454C44.0705 38.3454 42.5124 38.981 41.3405 40.2372C40.1724 41.4879 39.5819 43.2578 39.5819 45.4982C39.5819 47.6189 40.1706 49.3194 41.3331 50.5531C42.4992 51.7886 44.0048 52.415 45.8104 52.415C47.2691 52.415 48.4916 52.0475 49.4459 51.3219C50.4002 50.5982 51.0921 49.4789 51.499 47.9977C51.5346 47.8813 51.4652 47.7558 51.3452 47.7164Z" fill="white"/>
</svg>
