<svg width="30" height="30" viewBox="0 0 30 30" fill="none" xmlns="http://www.w3.org/2000/svg">
<path d="M12.5762 15.4659H1.87492C0.839033 15.4659 0 16.3059 0 17.3409V28.0421C0 29.078 0.839033 29.917 1.87492 29.917H12.5761C13.612 29.917 14.4511 29.078 14.4511 28.0421V17.3409C14.4511 16.3059 13.6121 15.4659 12.5762 15.4659Z" fill="#FF9F5F"/>
<path d="M28.1242 15.4659H17.4229C16.3879 15.4659 15.548 16.3059 15.548 17.3409V28.0421C15.548 29.078 16.388 29.917 17.4229 29.917H28.1241C29.16 29.917 29.999 29.078 29.999 28.0421V17.3409C29.9991 16.3059 29.1601 15.4659 28.1242 15.4659Z" fill="#ED6262"/>
<path d="M20.3506 0.082962H9.64845C8.61256 0.082962 7.77353 0.922962 7.77353 1.95789V12.6591C7.77353 13.695 8.61256 14.534 9.64845 14.534H20.3497C21.3856 14.534 22.2246 13.695 22.2246 12.6591V1.95789C22.2256 0.921995 21.3856 0.082962 20.3506 0.082962Z" fill="#3AA2EB"/>
<path d="M8.85818 7.05027C9.45631 7.05027 9.93534 6.56375 9.93534 5.96562V4.13474C9.93534 3.63505 10.346 3.22447 10.8456 3.231C11.5272 3.231 11.8327 3.62006 11.8327 4.08598V6.31625C11.8327 6.90689 12.2706 7.4281 12.8611 7.46278C13.4799 7.48997 14.0011 6.99686 14.0011 6.37813V4.91468C14.0011 4.41408 14.4042 4.00441 14.9114 4.00441C15.6669 4.09064 15.9473 4.47033 15.9473 4.96344V6.25432C15.9473 6.84496 16.3851 7.36616 16.9691 7.40085C17.5944 7.42894 18.109 6.93492 18.109 6.31619V4.41408C18.109 3.89287 18.5543 3.50381 19.0755 3.51033C19.0755 3.51033 19.0821 3.51033 19.0896 3.51033H19.0962C19.624 3.50284 20.0627 3.89281 20.0627 4.41408V6.11088C20.0627 6.69493 20.5005 7.21613 21.0845 7.25082C21.7099 7.27891 22.2245 6.7849 22.2245 6.16616L22.2254 1.95317C22.2226 0.920061 21.3845 0.082901 20.3505 0.082901H9.64846C8.61256 0.082901 7.77353 0.921934 7.77353 1.95783V5.96737C7.77444 6.56369 8.26102 7.05027 8.85818 7.05027Z" fill="#3AA2EB"/>
<path d="M16.6326 22.4341C17.2308 22.4341 17.7098 21.9476 17.7098 21.3504V19.5186C17.7098 19.018 18.1204 18.6083 18.6201 18.6148C19.3016 18.6148 19.6072 19.0039 19.6072 19.4698V21.7001C19.6072 22.2907 20.045 22.8119 20.6356 22.8466C21.2543 22.8738 21.7755 22.3807 21.7755 21.7619V20.2976C21.7755 19.797 22.1787 19.3873 22.6858 19.3873C23.4217 19.4708 23.7217 19.8383 23.7217 20.3463V21.6372C23.7217 22.2279 24.1595 22.7491 24.7435 22.7837C25.3688 22.8118 25.8834 22.3178 25.8834 21.7V19.7979C25.8834 19.2767 26.3288 18.8876 26.85 18.8941C26.85 18.8941 26.8566 18.8941 26.864 18.8941H26.8706C27.3984 18.8867 27.8372 19.2766 27.8372 19.7979V21.4947C27.8372 22.0787 28.275 22.5999 28.859 22.6346C29.4843 22.6618 29.9989 22.1687 29.9989 21.55L29.9999 17.337C29.997 16.3039 29.159 15.4667 28.125 15.4667H17.4229C16.3879 15.4667 15.548 16.3067 15.548 17.3416V21.3512C15.548 21.9476 16.0345 22.4341 16.6326 22.4341Z" fill="#E25D5D"/>
<path d="M1.08465 22.4341C1.68278 22.4341 2.16181 21.9476 2.16181 21.3504V19.5186C2.16181 19.018 2.57245 18.6083 3.07208 18.6148C3.75366 18.6148 4.05921 19.0039 4.05921 19.4698V21.7001C4.05921 22.2907 4.49704 22.8119 5.08761 22.8466C5.70634 22.8738 6.22755 22.3807 6.22755 21.7619V20.2976C6.22755 19.797 6.63069 19.3873 7.13782 19.3873C7.89341 19.4726 8.17372 19.8532 8.17372 20.3463V21.6372C8.17372 22.2279 8.61154 22.7491 9.19559 22.7837C9.82091 22.8118 10.3355 22.3178 10.3355 21.7V19.7979C10.3355 19.2767 10.7808 18.8876 11.3021 18.8941C11.3021 18.8941 11.3086 18.8941 11.3161 18.8941H11.3227C11.8505 18.8867 12.2892 19.2766 12.2892 19.7979V21.4947C12.2892 22.0787 12.7271 22.5999 13.3111 22.6346C13.9364 22.6618 14.4511 22.1687 14.4511 21.55L14.452 17.337C14.4492 16.3039 13.6111 15.4667 12.5771 15.4667H1.87492C0.839033 15.4667 0 16.3067 0 17.3416V21.3512C0 21.9476 0.486526 22.4341 1.08465 22.4341Z" fill="#F49758"/>
<path d="M15.6651 3.90224H14.2608C14.212 3.90224 14.1689 3.9313 14.1511 3.97722L11.59 10.5545C11.5759 10.5902 11.5806 10.6305 11.6031 10.6623C11.6246 10.6942 11.6612 10.7138 11.6996 10.7138H13.1077C13.1574 10.7138 13.2015 10.6829 13.2184 10.637L13.7321 9.21952H16.1985L16.7432 10.6389C16.761 10.6839 16.8042 10.7138 16.8529 10.7138H18.2975C18.3369 10.7138 18.3725 10.6941 18.395 10.6623C18.4166 10.6304 18.4213 10.5892 18.4072 10.5526L15.7739 3.97535C15.7561 3.93221 15.7129 3.90224 15.6651 3.90224ZM15.6858 7.87807H14.2271L14.9489 5.89438L15.6858 7.87807Z" fill="white"/>
<path d="M9.01848 22.4623C9.21347 22.3338 9.37752 22.1708 9.50598 21.9711C9.68314 21.6964 9.77407 21.3898 9.77407 21.0589C9.77407 20.7552 9.70096 20.4767 9.55655 20.2302C9.41311 19.9874 9.2322 19.7896 9.01655 19.6434C8.80096 19.4972 8.55438 19.3996 8.28344 19.3537C8.02283 19.3087 7.6244 19.2862 7.10036 19.2862H4.47171C4.407 19.2862 4.35455 19.3387 4.35455 19.4034V25.9807C4.35455 26.0454 4.40706 26.0978 4.47171 26.0978H6.71135C7.57286 26.0912 8.10066 26.0772 8.32477 26.0519C8.69788 26.0106 9.01474 25.8991 9.26972 25.7201C9.52567 25.5392 9.73003 25.2963 9.87722 24.9973C10.0234 24.7001 10.0975 24.3898 10.0975 24.0739C10.0975 23.6689 9.98036 23.3117 9.74972 23.0108C9.56785 22.7735 9.32314 22.5898 9.01848 22.4623ZM8.08755 21.6776C7.97504 21.7902 7.82223 21.8558 7.62066 21.8811C7.49975 21.8952 7.18005 21.9017 6.67008 21.9017H5.91637V20.6155H6.56132C7.18102 20.6155 7.55788 20.623 7.68162 20.637C7.87286 20.6595 8.01534 20.7251 8.10815 20.8292C8.20193 20.9352 8.24785 21.072 8.24785 21.2464C8.24785 21.4283 8.19534 21.5698 8.08755 21.6776ZM5.91637 23.231H6.87165C7.60477 23.231 7.8954 23.2788 8.01069 23.3182C8.16912 23.3735 8.28628 23.4569 8.36785 23.575C8.45033 23.6932 8.48972 23.8357 8.48972 24.011C8.48972 24.2135 8.43721 24.3757 8.33317 24.4919C8.22537 24.6119 8.08942 24.685 7.91413 24.7169C7.79697 24.7413 7.49885 24.7544 7.02821 24.7544H5.91637V23.231Z" fill="white"/>
<path d="M25.6726 23.8582L24.3855 23.4504C24.3545 23.4401 24.3208 23.4438 24.2917 23.4607C24.2636 23.4776 24.2429 23.5039 24.2354 23.5357C24.1304 23.9904 23.9589 24.326 23.7245 24.5323C23.4901 24.7385 23.2183 24.8388 22.8911 24.8388C22.4439 24.8388 22.0924 24.6794 21.8139 24.3504C21.5345 24.0213 21.393 23.4495 21.393 22.6508C21.393 21.8989 21.5365 21.3533 21.8196 21.028C22.1027 20.7017 22.4617 20.5433 22.9173 20.5433C23.2464 20.5433 23.5164 20.6314 23.7432 20.8133C23.9683 20.9933 24.1173 21.2427 24.1895 21.5558C24.197 21.5857 24.2157 21.612 24.242 21.6289C24.2682 21.6439 24.3001 21.6504 24.331 21.643L25.6454 21.3289C25.6763 21.3214 25.7035 21.3027 25.7194 21.2745C25.7354 21.2473 25.7391 21.2145 25.7307 21.1827C25.576 20.638 25.3388 20.2124 25.0257 19.918C24.5026 19.4239 23.8164 19.1727 22.9849 19.1727C22.0352 19.1727 21.2562 19.4905 20.6703 20.1186C20.0862 20.7439 19.7909 21.6289 19.7909 22.7491C19.7909 23.8094 20.0853 24.6597 20.6665 25.2766C21.2496 25.8943 22.0024 26.2075 22.9052 26.2075C23.6345 26.2075 24.2458 26.0237 24.7229 25.661C25.2001 25.2991 25.546 24.7395 25.7495 23.9988C25.7673 23.9407 25.7326 23.8779 25.6726 23.8582Z" fill="white"/>
</svg>
