<svg width="20" height="20" viewBox="0 0 20 20" fill="none" xmlns="http://www.w3.org/2000/svg">
<path d="M8.07351 10.0042L15.5555 2.52195C15.7615 2.31642 15.8748 2.04163 15.8748 1.74862C15.8748 1.45545 15.7615 1.18081 15.5555 0.974959L14.8999 0.319675C14.6942 0.113496 14.4192 0 14.1262 0C13.8332 0 13.5586 0.113496 13.3527 0.319675L4.44424 9.22797C4.23758 9.43447 4.1244 9.71041 4.12522 10.0037C4.1244 10.2984 4.23741 10.574 4.44424 10.7807L13.3444 19.6803C13.5503 19.8865 13.8249 20 14.1181 20C14.4111 20 14.6857 19.8865 14.8917 19.6803L15.5472 19.025C15.9737 18.5985 15.9737 17.9042 15.5472 17.4779L8.07351 10.0042Z" fill="black"/>
</svg>
