<svg width="46" height="46" viewBox="0 0 46 46" fill="none" xmlns="http://www.w3.org/2000/svg">
<circle cx="23" cy="23" r="23" fill="#EEEEEE"/>
<g clip-path="url(#clip0)">
<path d="M20.7129 23.4396H10.6153C9.63783 23.4396 8.84613 24.2323 8.84613 25.2088V35.3063C8.84613 36.2838 9.63783 37.0755 10.6153 37.0755H20.7128C21.6903 37.0755 22.482 36.2838 22.482 35.3063V25.2089C22.4821 24.2323 21.6904 23.4396 20.7129 23.4396Z" fill="#FF9F5F"/>
<path d="M35.3838 23.4396H25.2862C24.3096 23.4396 23.517 24.2323 23.517 25.2088V35.3063C23.517 36.2838 24.3096 37.0755 25.2862 37.0755H35.3837C36.3612 37.0755 37.1529 36.2838 37.1529 35.3063V25.2089C37.153 24.2323 36.3613 23.4396 35.3838 23.4396Z" fill="#ED6262"/>
<path d="M28.0488 8.92444H17.9503C16.9729 8.92444 16.1812 9.71705 16.1812 10.6936V20.7911C16.1812 21.7686 16.9729 22.5603 17.9503 22.5603H28.0479C29.0253 22.5603 29.817 21.7686 29.817 20.7911V10.6936C29.8179 9.71614 29.0254 8.92444 28.0488 8.92444Z" fill="#3AA2EB"/>
<path d="M17.2046 15.4987C17.769 15.4987 18.221 15.0396 18.221 14.4753V12.7477C18.221 12.2761 18.6085 11.8887 19.0799 11.8949C19.7231 11.8949 20.0114 12.262 20.0114 12.7016V14.8061C20.0114 15.3634 20.4245 15.8552 20.9818 15.888C21.5656 15.9136 22.0574 15.4483 22.0574 14.8645V13.4836C22.0574 13.0112 22.4378 12.6247 22.9163 12.6247C23.6293 12.706 23.8938 13.0643 23.8938 13.5296V14.7477C23.8938 15.305 24.3069 15.7968 24.858 15.8295C25.448 15.856 25.9336 15.3899 25.9336 14.806V13.0112C25.9336 12.5194 26.3538 12.1523 26.8456 12.1585C26.8456 12.1585 26.8518 12.1585 26.8589 12.1585H26.8651C27.3631 12.1514 27.7771 12.5194 27.7771 13.0112V14.6123C27.7771 15.1634 28.1902 15.6552 28.7413 15.6879C29.3313 15.7145 29.8169 15.2483 29.8169 14.6645L29.8178 10.6891C29.8151 9.71431 29.0244 8.92438 28.0487 8.92438H17.9503C16.9729 8.92438 16.1812 9.71608 16.1812 10.6935V14.4769C16.182 15.0396 16.6411 15.4987 17.2046 15.4987Z" fill="#3AA2EB"/>
<path d="M24.5405 30.0148C25.1049 30.0148 25.5569 29.5557 25.5569 28.9922V27.2637C25.5569 26.7913 25.9444 26.4048 26.4158 26.4109C27.0589 26.4109 27.3473 26.778 27.3473 27.2177V29.3221C27.3473 29.8794 27.7604 30.3712 28.3176 30.404C28.9015 30.4296 29.3933 29.9643 29.3933 29.3805V27.9988C29.3933 27.5264 29.7737 27.1398 30.2522 27.1398C30.9466 27.2186 31.2297 27.5653 31.2297 28.0448V29.2628C31.2297 29.8201 31.6428 30.3119 32.1938 30.3447C32.7839 30.3712 33.2695 29.905 33.2695 29.3221V27.5272C33.2695 27.0354 33.6897 26.6683 34.1815 26.6745C34.1815 26.6745 34.1877 26.6745 34.1948 26.6745H34.201C34.699 26.6674 35.113 27.0354 35.113 27.5272V29.1283C35.113 29.6794 35.5261 30.1712 36.0771 30.204C36.6672 30.2296 37.1528 29.7643 37.1528 29.1805L37.1537 25.2052C37.151 24.2303 36.3602 23.4404 35.3845 23.4404H25.2862C24.3096 23.4404 23.517 24.233 23.517 25.2096V28.9929C23.517 29.5557 23.9761 30.0148 24.5405 30.0148Z" fill="#E25D5D"/>
<path d="M9.8696 30.0148C10.434 30.0148 10.886 29.5557 10.886 28.9922V27.2637C10.886 26.7913 11.2735 26.4048 11.7449 26.4109C12.388 26.4109 12.6764 26.778 12.6764 27.2177V29.3221C12.6764 29.8794 13.0895 30.3712 13.6467 30.404C14.2306 30.4296 14.7224 29.9643 14.7224 29.3805V27.9988C14.7224 27.5264 15.1028 27.1398 15.5813 27.1398C16.2943 27.2203 16.5588 27.5795 16.5588 28.0448V29.2628C16.5588 29.8201 16.9719 30.3119 17.523 30.3447C18.113 30.3712 18.5986 29.905 18.5986 29.3221V27.5272C18.5986 27.0354 19.0188 26.6683 19.5106 26.6745C19.5106 26.6745 19.5168 26.6745 19.5239 26.6745H19.5301C20.0282 26.6674 20.4421 27.0354 20.4421 27.5272V29.1283C20.4421 29.6794 20.8553 30.1712 21.4064 30.204C21.9964 30.2296 22.482 29.7643 22.482 29.1805L22.4829 25.2052C22.4802 24.2303 21.6894 23.4404 20.7138 23.4404H10.6153C9.63783 23.4404 8.84613 24.233 8.84613 25.2096V28.9929C8.84613 29.5557 9.30521 30.0148 9.8696 30.0148Z" fill="#F49758"/>
<path d="M23.6276 12.5283H22.3025C22.2565 12.5283 22.2158 12.5557 22.199 12.599L19.7824 18.8053C19.7691 18.8389 19.7735 18.8769 19.7947 18.907C19.8151 18.9371 19.8496 18.9556 19.8858 18.9556H21.2145C21.2614 18.9556 21.303 18.9264 21.3189 18.8831L21.8036 17.5456H24.131L24.6449 18.8849C24.6617 18.9273 24.7024 18.9556 24.7484 18.9556H26.1115C26.1487 18.9556 26.1823 18.937 26.2036 18.907C26.2239 18.8769 26.2283 18.838 26.2151 18.8035L23.7303 12.5972C23.7134 12.5565 23.6727 12.5283 23.6276 12.5283ZM23.6471 16.2798H22.2707L22.9518 14.408L23.6471 16.2798Z" fill="white"/>
<path d="M17.3559 30.0413C17.5399 29.9201 17.6947 29.7662 17.8159 29.5778C17.9831 29.3186 18.0689 29.0294 18.0689 28.7171C18.0689 28.4305 17.9999 28.1678 17.8636 27.9352C17.7283 27.7061 17.5576 27.5194 17.3541 27.3814C17.1507 27.2435 16.918 27.1514 16.6623 27.1081C16.4164 27.0656 16.0405 27.0444 15.546 27.0444H13.0656C13.0046 27.0444 12.9551 27.094 12.9551 27.155V33.3612C12.9551 33.4223 13.0046 33.4718 13.0656 33.4718H15.1789C15.9918 33.4656 16.4899 33.4523 16.7013 33.4285C17.0534 33.3895 17.3524 33.2843 17.593 33.1153C17.8345 32.9446 18.0273 32.7155 18.1662 32.4333C18.3042 32.1529 18.3741 31.8601 18.3741 31.562C18.3741 31.1799 18.2635 30.8429 18.0459 30.5589C17.8743 30.335 17.6434 30.1616 17.3559 30.0413ZM16.4775 29.301C16.3713 29.4071 16.2271 29.469 16.0369 29.4929C15.9229 29.5062 15.6212 29.5124 15.14 29.5124H14.4288V28.2987H15.0374C15.6221 28.2987 15.9777 28.3058 16.0945 28.319C16.2749 28.3403 16.4094 28.4022 16.4969 28.5004C16.5854 28.6004 16.6288 28.7295 16.6288 28.894C16.6288 29.0657 16.5792 29.1992 16.4775 29.301ZM14.4288 30.7667H15.3302C16.0219 30.7667 16.2962 30.8118 16.405 30.849C16.5545 30.9011 16.665 30.9799 16.742 31.0913C16.8198 31.2028 16.857 31.3372 16.857 31.5027C16.857 31.6937 16.8074 31.8468 16.7093 31.9565C16.6075 32.0697 16.4793 32.1387 16.3139 32.1688C16.2033 32.1918 15.922 32.2042 15.4779 32.2042H14.4288V30.7667Z" fill="white"/>
<path d="M33.0706 31.3585L31.8561 30.9737C31.8269 30.9639 31.795 30.9675 31.7676 30.9834C31.7411 30.9993 31.7216 31.0241 31.7145 31.0542C31.6154 31.4832 31.4535 31.7999 31.2324 31.9945C31.0112 32.1891 30.7547 32.2838 30.446 32.2838C30.024 32.2838 29.6923 32.1334 29.4296 31.8229C29.166 31.5124 29.0324 30.9728 29.0324 30.2192C29.0324 29.5097 29.1678 28.9949 29.4349 28.6879C29.7021 28.3801 30.0408 28.2306 30.4707 28.2306C30.7812 28.2306 31.036 28.3137 31.2501 28.4853C31.4624 28.6552 31.603 28.8905 31.6711 29.1859C31.6782 29.2142 31.6959 29.239 31.7207 29.2549C31.7454 29.2691 31.7755 29.2753 31.8047 29.2682L33.0449 28.9718C33.0741 28.9648 33.0997 28.9471 33.1148 28.9205C33.1298 28.8949 33.1334 28.8639 33.1254 28.8339C32.9794 28.3199 32.7556 27.9183 32.4602 27.6406C31.9666 27.1744 31.319 26.9373 30.5345 26.9373C29.6384 26.9373 28.9033 27.2372 28.3504 27.8298C27.7993 28.4199 27.5207 29.2549 27.5207 30.312C27.5207 31.3125 27.7985 32.1148 28.3469 32.6968C28.8971 33.2797 29.6074 33.5753 30.4593 33.5753C31.1475 33.5753 31.7242 33.4019 32.1745 33.0596C32.6247 32.7181 32.9511 32.19 33.1431 31.4912C33.1599 31.4363 33.1272 31.3771 33.0706 31.3585Z" fill="white"/>
</g>
<defs>
<clipPath id="clip0">
<rect width="28.3077" height="28.3077" fill="white" transform="translate(8.84613 8.84616)"/>
</clipPath>
</defs>
</svg>
