<svg width="202" height="52" viewBox="0 0 202 52" fill="none" xmlns="http://www.w3.org/2000/svg">
<path d="M79.1777 29.8281H67.5586L64.9219 37H62.6543L72.3398 11.4062H74.3965L84.082 37H81.832L79.1777 29.8281ZM68.2266 27.9824H78.4922L73.3594 14.043L68.2266 27.9824ZM89.7246 37H87.6152V10H89.7246V37ZM110.748 27.6836C110.748 30.6484 110.092 33.0039 108.779 34.75C107.467 36.4844 105.709 37.3516 103.506 37.3516C100.904 37.3516 98.9121 36.4375 97.5293 34.6094V44.3125H95.4375V17.9805H97.3887L97.4941 20.6699C98.8652 18.6426 100.852 17.6289 103.453 17.6289C105.727 17.6289 107.508 18.4902 108.797 20.2129C110.098 21.9355 110.748 24.3262 110.748 27.3848V27.6836ZM108.639 27.3145C108.639 24.8887 108.141 22.9727 107.145 21.5664C106.148 20.1602 104.76 19.457 102.979 19.457C101.689 19.457 100.582 19.7676 99.6562 20.3887C98.7305 21.0098 98.0215 21.9121 97.5293 23.0957V32.2188C98.0332 33.3086 98.7539 34.1406 99.6914 34.7148C100.629 35.2891 101.736 35.5762 103.014 35.5762C104.783 35.5762 106.16 34.873 107.145 33.4668C108.141 32.0488 108.639 29.998 108.639 27.3145ZM117.516 21.1973C118.207 20.0605 119.092 19.1816 120.17 18.5605C121.248 17.9395 122.426 17.6289 123.703 17.6289C125.742 17.6289 127.26 18.2031 128.256 19.3516C129.252 20.5 129.756 22.2227 129.768 24.5195V37H127.676V24.502C127.664 22.8027 127.301 21.5371 126.586 20.7051C125.883 19.873 124.752 19.457 123.193 19.457C121.893 19.457 120.738 19.8672 119.73 20.6875C118.734 21.4961 117.996 22.5918 117.516 23.9746V37H115.424V10H117.516V21.1973ZM147.188 37C146.977 36.4023 146.842 35.5176 146.783 34.3457C146.045 35.3066 145.102 36.0508 143.953 36.5781C142.816 37.0938 141.609 37.3516 140.332 37.3516C138.504 37.3516 137.021 36.8418 135.885 35.8223C134.76 34.8027 134.197 33.5137 134.197 31.9551C134.197 30.1035 134.965 28.6387 136.5 27.5605C138.047 26.4824 140.197 25.9434 142.951 25.9434H146.766V23.7812C146.766 22.4219 146.344 21.3555 145.5 20.582C144.668 19.7969 143.449 19.4043 141.844 19.4043C140.379 19.4043 139.166 19.7793 138.205 20.5293C137.244 21.2793 136.764 22.1816 136.764 23.2363L134.654 23.2188C134.654 21.707 135.357 20.4004 136.764 19.2988C138.17 18.1855 139.898 17.6289 141.949 17.6289C144.07 17.6289 145.74 18.1621 146.959 19.2285C148.189 20.2832 148.822 21.7598 148.857 23.6582V32.6582C148.857 34.498 149.051 35.875 149.438 36.7891V37H147.188ZM140.578 35.4883C141.984 35.4883 143.238 35.1484 144.34 34.4688C145.453 33.7891 146.262 32.8809 146.766 31.7441V27.5605H143.004C140.906 27.584 139.266 27.9707 138.082 28.7207C136.898 29.459 136.307 30.4785 136.307 31.7793C136.307 32.8457 136.699 33.7305 137.484 34.4336C138.281 35.1367 139.312 35.4883 140.578 35.4883ZM169.793 27.6836C169.793 30.6484 169.137 33.0039 167.824 34.75C166.512 36.4844 164.748 37.3516 162.533 37.3516C159.885 37.3516 157.881 36.3672 156.521 34.3984L156.434 37H154.465V10H156.557V20.7402C157.893 18.666 159.873 17.6289 162.498 17.6289C164.748 17.6289 166.523 18.4902 167.824 20.2129C169.137 21.9238 169.793 24.3086 169.793 27.3672V27.6836ZM167.684 27.3145C167.684 24.8066 167.197 22.873 166.225 21.5137C165.252 20.1426 163.881 19.457 162.111 19.457C160.764 19.457 159.621 19.791 158.684 20.459C157.746 21.1152 157.037 22.082 156.557 23.3594V31.9375C157.611 34.3281 159.475 35.5234 162.146 35.5234C163.881 35.5234 165.234 34.8379 166.207 33.4668C167.191 32.0957 167.684 30.0449 167.684 27.3145ZM181.816 37.3516C180.199 37.3516 178.734 36.9531 177.422 36.1562C176.121 35.3594 175.107 34.252 174.381 32.834C173.654 31.4043 173.291 29.8047 173.291 28.0352V27.2793C173.291 25.4512 173.643 23.8047 174.346 22.3398C175.061 20.875 176.051 19.7266 177.316 18.8945C178.582 18.0508 179.953 17.6289 181.43 17.6289C183.738 17.6289 185.566 18.4199 186.914 20.002C188.273 21.5723 188.953 23.7227 188.953 26.4531V27.6309H175.383V28.0352C175.383 30.1914 175.998 31.9902 177.229 33.4316C178.471 34.8613 180.029 35.5762 181.904 35.5762C183.029 35.5762 184.02 35.3711 184.875 34.9609C185.742 34.5508 186.527 33.8945 187.23 32.9922L188.549 33.9941C187.002 36.2324 184.758 37.3516 181.816 37.3516ZM181.43 19.4219C179.848 19.4219 178.512 20.002 177.422 21.1621C176.344 22.3223 175.688 23.8809 175.453 25.8379H186.861V25.6094C186.803 23.7812 186.281 22.293 185.297 21.1445C184.312 19.9961 183.023 19.4219 181.43 19.4219ZM196.318 13.1113V17.9805H200.256V19.7031H196.318V32.377C196.318 33.4316 196.506 34.2168 196.881 34.7324C197.268 35.248 197.906 35.5059 198.797 35.5059C199.148 35.5059 199.717 35.4473 200.502 35.3301L200.59 37.0527C200.039 37.252 199.289 37.3516 198.34 37.3516C196.898 37.3516 195.85 36.9355 195.193 36.1035C194.537 35.2598 194.209 34.0234 194.209 32.3945V19.7031H190.711V17.9805H194.209V13.1113H196.318Z" fill="black"/>
<circle cx="26" cy="26" r="26" fill="#EEEEEE"/>
<path d="M23.4146 26.497H11.9999C10.895 26.497 10 27.393 10 28.4969V39.9115C10 41.0165 10.895 41.9114 11.9999 41.9114H23.4145C24.5195 41.9114 25.4145 41.0165 25.4145 39.9115V28.497C25.4145 27.393 24.5196 26.497 23.4146 26.497Z" fill="#FF9F5F"/>
<path d="M39.9991 26.497H28.5844C27.4804 26.497 26.5845 27.393 26.5845 28.4969V39.9115C26.5845 41.0165 27.4805 41.9114 28.5844 41.9114H39.999C41.104 41.9114 41.999 41.0165 41.999 39.9115V28.497C41.999 27.393 41.1041 26.497 39.9991 26.497Z" fill="#ED6262"/>
<path d="M31.7074 10.0885H20.2917C19.1867 10.0885 18.2918 10.9845 18.2918 12.0884V23.503C18.2918 24.608 19.1867 25.5029 20.2917 25.5029H31.7063C32.8113 25.5029 33.7062 24.608 33.7062 23.503V12.0884C33.7073 10.9835 32.8113 10.0885 31.7074 10.0885Z" fill="#3AA2EB"/>
<path d="M19.4487 17.5203C20.0867 17.5203 20.5977 17.0013 20.5977 16.3633V14.4104C20.5977 13.8774 21.0357 13.4394 21.5687 13.4464C22.2957 13.4464 22.6216 13.8614 22.6216 14.3584V16.7373C22.6216 17.3673 23.0886 17.9233 23.7186 17.9603C24.3785 17.9893 24.9345 17.4633 24.9345 16.8033V15.2423C24.9345 14.7083 25.3645 14.2714 25.9055 14.2714C26.7114 14.3633 27.0104 14.7684 27.0104 15.2943V16.6713C27.0104 17.3013 27.4774 17.8572 28.1003 17.8942C28.7674 17.9242 29.3163 17.3973 29.3163 16.7373V14.7083C29.3163 14.1524 29.7913 13.7374 30.3472 13.7444C30.3472 13.7444 30.3543 13.7444 30.3623 13.7444H30.3693C30.9323 13.7364 31.4002 14.1523 31.4002 14.7083V16.5183C31.4002 17.1413 31.8673 17.6972 32.4902 17.7342C33.1572 17.7642 33.7061 17.2372 33.7061 16.5772L33.7071 12.0834C33.7041 10.9814 32.8102 10.0884 31.7072 10.0884H20.2917C19.1867 10.0884 18.2918 10.9834 18.2918 12.0883V16.3652C18.2927 17.0013 18.8118 17.5203 19.4487 17.5203Z" fill="#3AA2EB"/>
<path d="M27.7415 33.9297C28.3795 33.9297 28.8904 33.4108 28.8904 32.7738V30.8198C28.8904 30.2858 29.3284 29.8488 29.8614 29.8558C30.5884 29.8558 30.9143 30.2708 30.9143 30.7678V33.1467C30.9143 33.7767 31.3813 34.3327 32.0113 34.3697C32.6713 34.3987 33.2272 33.8727 33.2272 33.2127V31.6508C33.2272 31.1168 33.6572 30.6798 34.1982 30.6798C34.9831 30.7688 35.3031 31.1608 35.3031 31.7028V33.0797C35.3031 33.7097 35.7701 34.2657 36.3931 34.3027C37.0601 34.3326 37.609 33.8057 37.609 33.1467V31.1177C37.609 30.5618 38.084 30.1468 38.64 30.1538C38.64 30.1538 38.647 30.1538 38.655 30.1538H38.662C39.225 30.1458 39.693 30.5617 39.693 31.1177V32.9277C39.693 33.5506 40.16 34.1066 40.7829 34.1436C41.4499 34.1726 41.9988 33.6466 41.9988 32.9866L41.9999 28.4928C41.9968 27.3908 41.1029 26.4978 39.9999 26.4978H28.5844C27.4804 26.4978 26.5845 27.3938 26.5845 28.4977V32.7746C26.5845 33.4108 27.1035 33.9297 27.7415 33.9297Z" fill="#E25D5D"/>
<path d="M11.157 33.9297C11.795 33.9297 12.3059 33.4108 12.3059 32.7738V30.8198C12.3059 30.2858 12.7439 29.8488 13.2769 29.8558C14.0039 29.8558 14.3298 30.2708 14.3298 30.7678V33.1467C14.3298 33.7767 14.7968 34.3327 15.4268 34.3697C16.0868 34.3987 16.6427 33.8727 16.6427 33.2127V31.6508C16.6427 31.1168 17.0727 30.6798 17.6137 30.6798C18.4196 30.7708 18.7186 31.1768 18.7186 31.7028V33.0797C18.7186 33.7097 19.1856 34.2657 19.8086 34.3027C20.4756 34.3326 21.0246 33.8057 21.0246 33.1467V31.1177C21.0246 30.5618 21.4996 30.1468 22.0555 30.1538C22.0555 30.1538 22.0625 30.1538 22.0705 30.1538H22.0776C22.6405 30.1458 23.1085 30.5617 23.1085 31.1177V32.9277C23.1085 33.5506 23.5755 34.1066 24.1985 34.1436C24.8655 34.1726 25.4145 33.6466 25.4145 32.9866L25.4155 28.4928C25.4125 27.3908 24.5185 26.4978 23.4156 26.4978H11.9999C10.895 26.4978 10 27.3938 10 28.4977V32.7746C10 33.4108 10.519 33.9297 11.157 33.9297Z" fill="#F49758"/>
<path d="M26.7095 14.1624H25.2115C25.1595 14.1624 25.1136 14.1934 25.0945 14.2424L22.3627 21.2581C22.3476 21.2962 22.3527 21.3392 22.3766 21.3731C22.3996 21.4071 22.4386 21.4281 22.4796 21.4281H23.9816C24.0346 21.4281 24.0816 21.3951 24.0996 21.3461L24.6476 19.8342H27.2785L27.8594 21.3481C27.8784 21.3961 27.9245 21.4281 27.9764 21.4281H29.5174C29.5594 21.4281 29.5974 21.4071 29.6214 21.3731C29.6444 21.3391 29.6494 21.2951 29.6344 21.2561L26.8255 14.2404C26.8065 14.1944 26.7605 14.1624 26.7095 14.1624ZM26.7315 18.4033H25.1756L25.9456 16.2873L26.7315 18.4033Z" fill="white"/>
<path d="M19.6197 33.9598C19.8277 33.8228 20.0027 33.6488 20.1397 33.4358C20.3287 33.1428 20.4257 32.8158 20.4257 32.4628C20.4257 32.1388 20.3477 31.8419 20.1937 31.5789C20.0407 31.3199 19.8477 31.1089 19.6177 30.9529C19.3877 30.797 19.1247 30.6929 18.8357 30.644C18.5577 30.5959 18.1327 30.572 17.5737 30.572H14.7698C14.7008 30.572 14.6449 30.628 14.6449 30.6969V37.7127C14.6449 37.7817 14.7009 37.8377 14.7698 37.8377H17.1588C18.0777 37.8307 18.6407 37.8157 18.8798 37.7887C19.2777 37.7447 19.6157 37.6257 19.8877 37.4347C20.1607 37.2418 20.3787 36.9827 20.5357 36.6638C20.6917 36.3468 20.7707 36.0158 20.7707 35.6788C20.7707 35.2468 20.6457 34.8658 20.3997 34.5449C20.2057 34.2918 19.9447 34.0958 19.6197 33.9598ZM18.6267 33.1228C18.5067 33.2428 18.3437 33.3128 18.1287 33.3398C17.9997 33.3548 17.6587 33.3618 17.1148 33.3618H16.3108V31.9898H16.9988C17.6598 31.9898 18.0617 31.9978 18.1937 32.0128C18.3977 32.0368 18.5497 32.1068 18.6487 32.2179C18.7487 32.3308 18.7977 32.4768 18.7977 32.6628C18.7977 32.8568 18.7417 33.0078 18.6267 33.1228ZM16.3108 34.7797H17.3298C18.1118 34.7797 18.4218 34.8307 18.5447 34.8727C18.7137 34.9317 18.8387 35.0207 18.9257 35.1467C19.0137 35.2727 19.0557 35.4247 19.0557 35.6117C19.0557 35.8277 18.9997 36.0007 18.8887 36.1247C18.7737 36.2527 18.6287 36.3307 18.4418 36.3647C18.3168 36.3907 17.9988 36.4047 17.4968 36.4047H16.3108V34.7797Z" fill="white"/>
<path d="M37.3841 35.4487L36.0112 35.0138C35.9782 35.0027 35.9422 35.0067 35.9112 35.0248C35.8812 35.0428 35.8592 35.0708 35.8512 35.1048C35.7392 35.5898 35.5562 35.9477 35.3062 36.1677C35.0562 36.3877 34.7662 36.4947 34.4172 36.4947C33.9402 36.4947 33.5652 36.3247 33.2682 35.9738C32.9702 35.6227 32.8193 35.0128 32.8193 34.1608C32.8193 33.3588 32.9723 32.7768 33.2742 32.4298C33.5763 32.0819 33.9592 31.9129 34.4452 31.9129C34.7962 31.9129 35.0841 32.0068 35.3262 32.2008C35.5662 32.3928 35.7252 32.6588 35.8021 32.9928C35.8101 33.0248 35.8301 33.0528 35.8581 33.0708C35.8861 33.0868 35.9201 33.0938 35.9531 33.0858L37.3551 32.7508C37.3881 32.7428 37.4171 32.7228 37.4341 32.6928C37.4511 32.6638 37.4551 32.6288 37.4461 32.5948C37.2811 32.0139 37.0281 31.5599 36.6941 31.2459C36.1362 30.7189 35.4041 30.4509 34.5172 30.4509C33.5043 30.4509 32.6733 30.7899 32.0483 31.4598C31.4253 32.1269 31.1104 33.0708 31.1104 34.2657C31.1104 35.3967 31.4244 36.3037 32.0443 36.9617C32.6663 37.6206 33.4693 37.9547 34.4322 37.9547C35.2102 37.9547 35.8622 37.7587 36.3712 37.3717C36.8801 36.9857 37.2491 36.3888 37.4661 35.5988C37.4851 35.5367 37.4481 35.4697 37.3841 35.4487Z" fill="white"/>
</svg>
