<svg width="40" height="40" viewBox="0 0 40 40" fill="none" xmlns="http://www.w3.org/2000/svg">
<g clip-path="url(#clip0)">
<path d="M39.7047 16.5742C39.6507 16.2676 39.4717 15.9968 39.2111 15.8267C38.9475 15.6566 38.6285 15.6041 38.3264 15.68C37.6365 15.8522 36.921 15.8136 36.2706 15.5633C34.5121 14.888 33.6324 12.9075 34.3063 11.1496C34.5624 10.4853 35.0231 9.92245 35.6393 9.52162C35.9013 9.35228 36.0801 9.08141 36.1328 8.7742C36.1867 8.4676 36.1109 8.15224 35.9226 7.90399C34.6852 6.27165 33.2099 4.84671 31.5419 3.66916C31.2878 3.49033 30.9702 3.42614 30.6658 3.48741C30.3621 3.55087 30.0971 3.73785 29.935 4.00361C29.5736 4.60223 29.0451 5.06797 28.4064 5.35123C27.9655 5.54757 27.4997 5.64762 27.0209 5.64762C25.671 5.64762 24.4468 4.85121 23.8985 3.61956C23.6066 2.96259 23.5314 2.2413 23.6796 1.534C23.7438 1.22958 23.6781 0.912769 23.5006 0.657225C23.3211 0.403141 23.0451 0.23525 22.7372 0.192943C20.7135 -0.0895894 18.6443 -0.0588318 16.6513 0.282055C16.3432 0.334574 16.0736 0.512677 15.9023 0.772597C15.731 1.03252 15.6755 1.35225 15.7504 1.65436C15.9187 2.33698 15.8746 3.04064 15.6249 3.68971C15.1226 5.00086 13.8403 5.88201 12.4372 5.88201C12.0193 5.88201 11.6084 5.80457 11.2123 5.65273C10.5462 5.39658 9.98259 4.93509 9.5825 4.31751C9.41424 4.05613 9.14447 3.87657 8.83787 3.82259C8.53127 3.76861 8.21591 3.84374 7.96766 4.02999C6.32839 5.26224 4.89615 6.73472 3.71059 8.40414C3.52957 8.65895 3.4638 8.97869 3.52811 9.28383C3.5923 9.5897 3.78207 9.85546 4.04929 10.0161C4.65556 10.3788 5.12641 10.9102 5.41259 11.5535C5.78338 12.3871 5.80818 13.315 5.48152 14.1661C5.15474 15.0173 4.51491 15.6904 3.68129 16.0612C3.01374 16.3569 2.27057 16.4285 1.55512 16.2708C1.25034 16.2028 0.930244 16.2657 0.673241 16.4423C0.415874 16.6204 0.243972 16.8971 0.199841 17.2067C-0.0907151 19.255 -0.0648203 21.3144 0.277525 23.3278C0.330166 23.6382 0.511551 23.9119 0.775483 24.0826C1.03941 24.2527 1.36243 24.303 1.66758 24.225C2.36576 24.0418 3.09069 24.0791 3.75241 24.3331C4.60365 24.6601 5.27631 25.2996 5.6471 26.1318C6.0179 26.9649 6.04136 27.8927 5.7147 28.7445C5.45149 29.4263 4.97299 29.9994 4.32878 30.4017C4.06156 30.5688 3.87726 30.8382 3.81891 31.147C3.76201 31.4566 3.83605 31.7748 4.02436 32.0275C5.26683 33.6802 6.74915 35.1219 8.43109 36.3097C8.68846 36.4923 9.01038 36.5587 9.31917 36.4894C9.62578 36.4222 9.8919 36.2281 10.0496 35.9557C10.4143 35.325 10.9548 34.8373 11.6132 34.5439C12.056 34.3475 12.5217 34.2482 12.9991 34.2482C14.3486 34.2482 15.5746 35.0439 16.1226 36.2763C16.4259 36.9579 16.4948 37.7063 16.3244 38.4407C16.2509 38.7473 16.3123 39.0714 16.4912 39.3305C16.6696 39.5898 16.9493 39.7636 17.2602 39.8066C18.1731 39.9336 19.1013 39.9993 20.0178 39.9993C21.1511 39.9993 22.2915 39.9001 23.4047 39.7065C23.7142 39.6526 23.9887 39.4714 24.1588 39.2051C24.3282 38.9386 24.3778 38.6152 24.2961 38.3108C24.1048 37.6005 24.1384 36.872 24.3953 36.2061C24.8991 34.8958 26.1815 34.0139 27.5862 34.0139C28.0038 34.0139 28.4147 34.0921 28.8082 34.2425C29.49 34.5052 30.0623 34.9842 30.4639 35.6266C30.6325 35.893 30.9034 36.0785 31.2129 36.1348C31.5208 36.1917 31.8407 36.1165 32.0917 35.9259C33.7387 34.6791 35.1724 33.1935 36.3535 31.5115C36.5346 31.2545 36.5989 30.9355 36.5318 30.6282C36.4645 30.3222 36.2733 30.0565 36.0032 29.898C35.3812 29.5352 34.8971 28.9973 34.6088 28.3447C33.8444 26.6241 34.6213 24.6011 36.3403 23.8368C37.0061 23.5404 37.7479 23.4689 38.4633 23.6273C38.7698 23.6937 39.0895 23.6309 39.3466 23.4522C39.6043 23.2739 39.7745 22.9951 39.8168 22.6842C40.0937 20.6454 40.0565 18.5904 39.7047 16.5742ZM23.4947 27.8544C22.3858 28.3479 21.2112 28.5974 20.0052 28.5974C16.6107 28.5974 13.5256 26.5943 12.1458 23.494C10.2201 19.1636 12.1746 14.0717 16.507 12.1451C17.6162 11.651 18.7905 11.4012 19.9964 11.4012C23.391 11.4012 26.476 13.4051 27.8558 16.5056C29.7824 20.8359 27.8252 25.927 23.4947 27.8544Z" fill="black"/>
<path d="M19.9973 13.6439C19.1085 13.6439 18.239 13.8286 17.4189 14.1935C14.2189 15.6178 12.7716 19.3809 14.1963 22.582C15.2153 24.8743 17.496 26.3548 20.0053 26.3548C20.8941 26.3548 21.7625 26.1707 22.5836 25.8058C25.784 24.3814 27.2295 20.6183 25.8067 17.4172C24.7876 15.1244 22.507 13.6439 19.9973 13.6439Z" fill="black"/>
</g>
<defs>
<clipPath id="clip0">
<rect width="40" height="40" fill="white"/>
</clipPath>
</defs>
</svg>
